<?xml version="1.0" encoding="UTF-8"?>
<svg xmlns="http://www.w3.org/2000/svg" xmlns:xlink="http://www.w3.org/1999/xlink" width="46px" height="46px" viewBox="-4 -4 64 64" version="1.1">
<g id="surface1">
<path style=" stroke:none;fill-rule:evenodd;fill:rgb(100%,100%,100%);fill-opacity:1;" d="M 32.226562 15.0625 L 32.171875 0 L 23.773438 0 L 23.828125 15.0625 L 28.027344 20.832031 Z M 23.828125 40.878906 L 23.828125 56 L 32.226562 56 L 32.226562 40.878906 L 28.027344 35.113281 Z M 23.828125 40.878906 "/>
<path style=" stroke:none;fill-rule:evenodd;fill:rgb(0%,94.901961%,90.196078%);fill-opacity:1;" d="M 32.226562 40.878906 L 41.074219 53.089844 L 47.851562 48.160156 L 39.003906 35.953125 L 32.226562 33.769531 Z M 23.828125 15.0625 L 14.925781 2.855469 L 8.148438 7.785156 L 16.996094 19.992188 L 23.828125 22.175781 Z M 23.828125 15.0625 "/>
<path style=" stroke:none;fill-rule:evenodd;fill:rgb(0%,72.54902%,94.509804%);fill-opacity:1;" d="M 16.996094 19.992188 L 2.660156 15.34375 L 0.0859375 23.296875 L 14.421875 28 L 21.195312 25.761719 Z M 34.804688 30.183594 L 39.003906 35.953125 L 53.339844 40.601562 L 55.914062 32.648438 L 41.578125 28 Z M 34.804688 30.183594 "/>
<path style=" stroke:none;fill-rule:evenodd;fill:rgb(83.921569%,22.745098%,100%);fill-opacity:1;" d="M 41.578125 28 L 55.914062 23.296875 L 53.339844 15.34375 L 39.003906 19.992188 L 34.804688 25.761719 Z M 14.421875 28 L 0.0859375 32.648438 L 2.660156 40.601562 L 16.996094 35.953125 L 21.195312 30.183594 Z M 14.421875 28 "/>
<path style=" stroke:none;fill-rule:evenodd;fill:rgb(98.431373%,0.392157%,35.686275%);fill-opacity:1;" d="M 16.996094 35.953125 L 8.148438 48.160156 L 14.925781 53.089844 L 23.828125 40.878906 L 23.828125 33.769531 Z M 39.003906 19.992188 L 47.851562 7.785156 L 41.074219 2.855469 L 32.226562 15.0625 L 32.226562 22.175781 Z M 39.003906 19.992188 "/>
</g>
</svg>
